<svg xmlns="http://www.w3.org/2000/svg" class="icon-ok-clean" fill="none" height="30" viewBox="0 0 18 30" width="18"><path clip-rule="evenodd" d="m8.69308 15.2434c-4.28175 0-7.763984-3.4183-7.763984-7.62051 0-4.20369 3.482234-7.62289 7.763984-7.62289 4.28272 0 7.76402 3.4192 7.76402 7.62289 0 4.20221-3.4813 7.62051-7.76402 7.62051zm0-10.7762c-1.77136 0-3.21479 1.41526-3.21479 3.15569 0 1.73896 1.44343 3.15511 3.21479 3.15511 1.77272 0 3.21472-1.41615 3.21472-3.15511 0-1.74043-1.442-3.15569-3.21472-3.15569zm7.66962 15.1648c-1.4039.8656-2.9281 1.4795-4.5084 1.833l4.3402 4.2615c.8892.8712.8892 2.2859 0 3.1579-.8882.872-2.3278.872-3.2152 0l-4.26734-4.1877-4.2636 4.1877c-.4446.4356-1.02715.6536-1.6097.6536-.58158 0-1.16316-.218-1.60776-.6536-.888226-.872-.888226-2.2858-.00097-3.1579l4.34081-4.2615c-1.58041-.3535-3.10455-.9683-4.50841-1.833-1.06248235-.6576-1.38159-2.0354-.712153-3.0794.667503-1.0454 2.071353-1.36 3.135653-.7024 3.17849 1.963 7.27307 1.9635 10.45337 0 1.0642-.6576 2.4677-.343 3.1366.7024.6693 1.043.3492 2.4218-.7131 3.0794z" fill="#43524a" fill-rule="evenodd"></path></svg>
