<svg xmlns:svg="http://www.w3.org/2000/svg" xmlns="http://www.w3.org/2000/svg" xmlns:xlink="http://www.w3.org/1999/xlink" class="icon-tg-clean" height="32" viewBox="0 0 32 32" width="32"><path d="m16 .0666504c-8.80002 0-15.9333496 7.1333296-15.9333496 15.9333496 0 8.8 7.1333296 15.9333 15.9333496 15.9333 8.8 0 15.9333-7.1333 15.9333-15.9333 0-8.80002-7.1333-15.9333496-15.9333-15.9333496zm7.7067 9.6933296-3.04 14.49332c-.12.5734-.8.8267-1.2667.48l-7.1867-5.4c-.0266-.0133-.0266-.0533 0-.0666l6.0667-5.3734c.2667-.2266-.04-.64-.3467-.4666l-8.17333 4.8266c-.01333.0134-.02666.0134-.04 0l-4.21333-1.36c-.44-.1466-.46667-.76-.02667-.9333l17.37333-6.92002c.4667-.2.96.22667.8534.72z" fill="currentColor"></path></svg>