<svg xmlns="http://www.w3.org/2000/svg" class="icon-vk-clean" fill="none" height="15" viewBox="0 0 27 15" width="27"><path clip-rule="evenodd" d="m15.3434 14.3985c-.246.2571-.7265.309-.7265.309h-1.5912s-3.51052.2051-6.60301-2.9249c-3.37243-3.41498-6.3504161-10.19043-6.3504161-10.19043s-.1717986-.44443.0143514-.658409c.2096527-.241793.7813097-.25704.7813097-.25704l3.803385-.024004s.35816.056971.61461.240557c.21225.151956.33081.434336.33081.434336s.6146 1.51185 1.42836 2.87926c1.58987 2.67044 2.32947 3.25416 2.86858 2.96797.78652-.41652.55072-3.77453.55072-3.77453s.0144-1.21803-.3958-1.76126c-.31767-.42033-.91668-.54324-1.18103-.57734-.21485-.02791.13675-.511603.59246-.728052.68487-.32544704 1.89327-.3444033 3.32167-.33049532 1.1134.01133242 1.4337.07850332 1.8686.18101032 1.0094.236848.9778.995917.9098 2.634167-.0204.48998-.044 1.05845-.044 1.71522 0 .14763-.0043.30494-.0089.46679-.0236.83922-.0506 1.80031.5181 2.15811.2917.18224 1.004.02658 2.7865-2.91615.8451-1.39533 1.4779-3.03503 1.4779-3.03503s.1393-.292475.3542-.417853c.22-.12785.517-.088599.517-.088599l4.0026-.024107s1.2032-.140522 1.3972.388809c.2044.55322-.4492 1.84728-2.0847 3.96696-1.5514 2.0112-2.3063 2.75162-2.237 3.40653.0506.47854.5414.91133 1.4831 1.76078 1.9658 1.7749 2.4929 2.7087 2.6194 2.9331.0105.0186.0182.0323.0239.0412.8815 1.4219-.9779 1.5334-.9779 1.5334l-3.5561.0481s-.763.1469-1.7682-.5242c-.5266-.3513-1.0412-.9249-1.5312-1.4713-.7486-.8345-1.4399-1.6053-2.0301-1.4233-.991.3065-.961 2.3818-.961 2.3818s.0078.4444-.2175.6799z" fill="#43524a" fill-rule="evenodd"></path></svg>
