<svg xmlns="http://www.w3.org/2000/svg" class="icon-wa-clean" fill="none" height="32" viewBox="0 0 32 32" width="32"><g clip-rule="evenodd" fill="currentColor" fill-rule="evenodd"><path d="m29.6878 16.8061c0-.0267 0-.0666 0-.0933 0-.0399 0-.0799 0-.1199 0-.0666 0-.1465.0133-.2131 0-.04 0-.0799 0-.1332 0-.0666 0-.1466 0-.2132 0-.0133 0-.0133 0-.0266 0-.04 0-.08 0-.1199 0-.0666 0-.1199 0-.1865 0-.0667 0-.1333 0-.1999 0-.0399 0-.0932 0-.1332 0-.0799-.0133-.1599-.0133-.2398 0-.0266 0-.0533 0-.0799 0-.0933-.0133-.1865-.0267-.2798v-.0266c-.6396-6.99414-6.5161-12.46952-13.6851-12.46952-7.56877 0-13.7384 6.15481-13.7384 13.72172 0 3.1041 1.02605 5.955 2.74502 8.2597l-.01333.0533-.43973 1.9717-.51969 2.3713c-.0533.2532.18655.4796.43973.3997l2.31861-.7327.95943-.3064 1.03937-.3331c2.09209 1.2923 4.57059 2.0516 7.22229 2.0516 7.3023 0 13.2854-5.7152 13.6985-12.9224zm-2.8783-12.60271c6.5161 5.96831 6.9558 16.09311.9861 22.60761-5.1436 5.6086-13.352 6.7143-19.69485 3.104l-1.26591.3997-4.997 1.572c-.25318.0799-.49304-.1465-.43974-.3997l1.13266-5.1156.27983-1.2923c-4.13086-6.0083-3.744419-14.2946 1.39916-19.88988 5.96975-6.5145 16.09705-6.95413 22.59975-.98583z"></path><path d="m9.32669 9.41233c-.71957.83927-.97275 1.89177-.87948 3.05077-.42641 4.6494 6.58269 11.9366 11.17999 11.497 1.4524.1332 2.745-.3331 3.6644-1.6387.4131-.8526.3198-1.3455.1866-1.6119-.3731-.7461-2.865-1.572-3.6645-1.8918-.4797-.1998-1.559.5196-1.8522.9192-.2932.3997-.8128.1199-.8128.1199-1.1593-.5861-4.2508-3.9833-4.7172-5.2089 0 0-.2265-.5462.1999-.7993s1.2392-1.2656 1.0926-1.7585c-.1465-.493-1.3325-3.65029-1.3325-3.65029s-.3997-.67942-1.8256-.15986c-.0266 0-.6529.34637-1.23921 1.13238z"></path></g></svg>