<svg xmlns="http://www.w3.org/2000/svg" class="icon-yt-clean" fill="none" height="23" viewBox="0 0 31 23" width="31"><path clip-rule="evenodd" d="m27.5926.676062c1.3329.372058 2.3827 1.468188 2.739 2.860188.6474 2.52283.6474 7.78685.6474 7.78685s0 5.2637-.6474 7.7868c-.3563 1.392-1.4061 2.4881-2.739 2.8603-2.4156.676-12.1031.676-12.1031.676s-9.68747 0-12.10323-.676c-1.33306-.3722-2.38284-1.4683-2.7391-2.8603-.64717-2.5231-.64717-7.7868-.64717-7.7868s0-5.26402.64717-7.78685c.35626-1.392 1.40604-2.48813 2.7391-2.860188 2.41576-.67606188 12.10323-.676062 12.10323-.676062s9.6875.00000012 12.1031.676062zm-15.0074 16.062438 7.7448-4.923-7.7448-4.92319z" fill="#43524a" fill-rule="evenodd"></path></svg>
