<svg xmlns="http://www.w3.org/2000/svg" class="icon-logo-wide" fill="none" height="44" viewBox="0 0 179 44" width="179"><g fill="currentColor"><path d="m178.419 5.38134c-.642-1.38863-2.068-2.6324-4.213-2.33769-3.065.42458-4.143 4.27079-2.256 6.15392.622.6144 1.396.37463 1.502 1.38863.127 1.0989-1.856 3.5365-2.802 4.7603-7.688 10.115-20.925 15.6745-37.757 15.8043-9.944.0849-18.619-2.1028-24.951-5.2497-4.401-2.1879-9.823-5.9142-13.3382-9.6555-1.1735-1.2437-2.9589-3.3068-2.883-4.5855.1214-1.97801 1.75-1.6883 1.7348-3.77623-.0303-2.44259-1.8967-4.31573-4.37-4.1509-2.8426.17983-4.4612 2.96208-4.011 6.44863.612 4.6454 5.24 9.4706 7.683 11.9332 9.4484 9.5955 23.5394 16.3089 41.2574 15.8644 18.143-.4596 31.769-7.2529 39.913-18.4619 2.099-2.8921 6.702-9.3856 4.481-14.13096"></path><g clip-rule="evenodd" fill-rule="evenodd"><path d="m5.91985 37.5883c-1.78823.0426-3.36356-.9793-3.40614-4.0448s1.2773-4.6834 2.5546-4.6834c.97927 0 1.53276.596 1.70307 2.3417 0 0 .46834.2555.93669.2555.68122 0 1.74564-.2981 1.70306-1.6605 0-.6387-.25546-1.0645-.68122-1.4051-.89411-.6812-2.42687-.8089-3.32098-.7663-1.31988 0-2.34172.3831-3.19326 1.0218-1.490182 1.107-2.2565645 3.0655-2.21398779 5.535.04257669 1.8733.72380579 3.7467 2.42687779 4.6408.68122.3406 1.49018.5535 2.42687.5535 2.63975-.0426 4.72601-1.8308 4.72601-1.8308l-.42577-.8089c-.80895.4683-2.08625.8089-3.23582.8515z"></path><path d="m27.8894 37.2477c-1.7882.0426-3.3635-.9793-3.4061-4.0448s1.2773-4.6834 2.5546-4.6834c.9793 0 1.5328.596 1.6605 2.3417 0 0 .4683.2554.9367.2554.6812 0 1.7456-.298 1.703-1.6605 0-.6386-.2554-1.0644-.6812-1.405-.8941-.6812-2.4269-.8089-3.321-.7664-1.2347 0-2.214.3832-3.0655.9793-1.5328 1.107-2.3843 3.1507-2.3417 5.5775.0426 1.8734.7238 3.7468 2.4269 4.6409.6812.3406 1.4901.5535 2.4268.5535 2.6398-.0426 4.7261-1.8308 4.7261-1.8308l-.4258-.809c-.809.4684-2.0863.8516-3.1933.8516z"></path><path d="m64.9312 30.9463c-1.6605.0426-2.6398.6813-2.9804.8516l-.0426-2.7249c0-.8516.2555-1.0645.809-1.107.5535-.0852.5535-.2129.5535-.4684v-.3406c-.5109-.1277-2.1289.0426-2.6398.0426-.8515 0-2.1288-.0852-2.5546.0426v.298c0 .2129.0852.4258.4684.4258.298 0 .5535-.0426.8941-.0426l.1277 8.0044c0 1.2347-.3832 1.2773-.9367 1.3625-.3406.0425-.4258.1703-.4258.4683v.298s1.6605.2129 5.2796.1278c1.2773 0 2.7249-.3406 3.6616-1.2773.6386-.5961 1.1495-1.5754 1.1495-2.9804 0-.7664-.2554-1.5328-.7664-2.0863-.7238-.6812-1.7456-.8941-2.5971-.8941zm.2554 5.6627c-.5109.511-1.2773.7238-1.8733.7238-.809 0-1.3199-.4257-1.3199-.4257l-.0426-4.0448c.4683-.2129 1.1496-.5109 2.0437-.5109 1.4902 0 1.9585 1.0644 1.9585 2.0862 0 .8941-.2129 1.6179-.7664 2.1714z"></path><path d="m73.3614 27.7957c.5534-.0852.5535-.2555.5109-.4684v-.298c-.6387-.0852-2.0437.0425-2.5546.0425-.6813 0-1.916-.0851-2.5121.0426v.3406c0 .2981.2129.4258.4684.4258.2554 0 .6812-.0426.8089-.0426l.1278 8.2599c0 .9367-.2981 1.1922-.809 1.2347-.4683.0426-.4683.2129-.4683.4258v.298c.596.0852 1.8308-.0425 2.512-.0425.5109 0 1.9585.0851 2.5546-.0426v-.2555c0-.3406-.1703-.5535-.5109-.5535-.2555 0-.4258.0426-.8516.0852l-.1277-8.2173c0-.9367.4258-1.1922.8516-1.2347z"></path><path d="m16.6918 37.4606c-2.214.0425-3.2785-1.6605-3.321-3.8745v-.4258l6.8548-.8515c.0426-2.8952-1.0644-4.9815-4.1299-4.9389-1.0644 0-2.1289.3406-2.9378.9367-1.5328 1.1495-2.2992 3.1932-2.2566 5.5349.0426 3.1933 1.8308 5.3221 4.8538 5.2796 1.405 0 3.4061-.6813 4.8111-1.8308l-.4257-.809c-.7238.5109-2.4269.9793-3.4487.9793zm-2.6398-7.3658c.4258-.809 1.1921-1.405 1.9585-1.405s1.0644.4257 1.3199.9792c.2129.5109.2555 1.2773.298 1.6179v.2129c-.4683.0852-4.1725.7238-4.1725.7238.0852-.7238.2555-1.4902.5961-2.1288z"></path><path d="m43.0467 27.4125-9.6223.1277c-.298 0-.4258.1277-.5109.3832-.1278.4683-.2129 1.0644-.2981 1.7031-.0851.5535-.1277 1.3198-.1703 1.6179h.3832c.2555 0 .4258-.0426.5109-.3406.1278-.4258.2555-.809.4684-1.1922.4258-.5961 1.107-1.107 2.0862-1.107h1.0645l.1277 7.8341c0 .3832-.0426.6387-.0852.809-.1277.4258-.4683.5535-.7238.5535-.3406 0-.5535.1277-.5535.3832v.3406c.6387.0426 2.1289 0 2.6398 0 1.1496 0 2.1714-.0426 2.6398-.0852v-.298c0-.2129-.0852-.4683-.511-.4683-.2128 0-.5109.0425-.9367.1277l-.1277-9.2392h1.3199c1.7031-.0425 2.0011 1.4902 2.0437 2.0863 0 .4258.2129.5109.5961.5109h.2554c.0426-.6386.0852-1.2347.0852-2.0437v-1.1921c-.1703-.3406-.2555-.5109-.6813-.5109z"></path><path d="m52.2859 27.1144c-1.3199 0-2.3843.6387-3.4487 1.4051-.0426-.7664-.2555-1.4902-.2555-1.4902-2.3417.5535-3.4913.9367-3.7893 1.0644-.2555.0851-.2555.2129-.2555.4683l.0426.2555s.6812 0 .8941.0426c.4683.1277.9367.3832.9793 1.3624l.1703 11.368c0 1.2347-.5535 1.3199-1.107 1.405-.3406 0-.4258.1704-.4258.3832v.2981c.809.0851 2.1714 0 2.7249 0 1.3625 0 2.3843 0 2.7675-.0852v-.298c0-.2129-.1277-.4684-.4683-.4684-.4258 0-.6387.0426-1.0644.0852l-.0852-4.7686c.4258.1703 1.107.3832 1.916.3406 1.6604-.0426 3.1506-.5961 4.1725-1.6605 1.107-1.107 1.703-2.7675 1.6605-4.8963 0-3.4061-2.1715-4.8112-4.428-4.8112zm1.0218 8.9837c-.6386.8515-1.6179 1.2773-2.4694 1.2773-1.3625 0-1.8734-.6812-1.8734-.6812l-.0852-6.8974c.511-.3832 1.4902-.8516 2.6398-.8516 1.8734-.0426 2.7675 1.3199 2.7675 3.3636 0 1.6179-.298 2.9378-.9793 3.7893z"></path><path d="m38.1465 4.59408c-1.3066 0-2.3602.63221-3.4139 1.39087-.0422-.75866-.2529-1.47517-.2529-1.47517-2.3181.54792-3.4561.92725-3.7512 1.05369-.2528.0843-.2528.21074-.2528.42148l.0421.25288s.6744 0 .8851.04215c.4636.12644.9273.37933.9694 1.34872l.1686 11.2534c0 1.2223-.5479 1.3066-1.0958 1.3909-.3372 0-.4215.1685-.3794.3793v.295c.8008.0843 2.1496.0422 2.6975.0422 1.3487 0 2.3602-.0422 2.7396-.0843v-.2951c0-.2107-.1265-.4636-.4637-.4636-.4214 0-.6322.0422-1.0536.0843v-1.3909l-.0422-3.3718c.4215.1686 1.0958.3794 1.8966.3794 1.6438-.0422 3.119-.5901 4.1305-1.6438 1.0958-1.0958 1.6859-2.7396 1.6437-4.84695-.1264-3.3718-2.2338-4.80482-4.4676-4.76267zm1.0116 8.85102c-.6323.8429-1.6017 1.2644-2.4446 1.2644-1.3487 0-1.8545-.6744-1.8545-.6744l-.0843-6.82787c.5058-.37933 1.4752-.84296 2.6132-.84296 1.8545-.04214 2.7395 1.30658 2.7395 3.32966 0 1.60157-.3371 2.95037-.9693 3.75117z"></path><path d="m54.0361 4.50978c-.5057 0-2.1495-.04215-2.6553.04215v.29503c0 .21074.1686.46363.5901.46363.2529 0 .6322-.0843.8008-.0843v.96939l-4.8891 5.90062-.0843-5.68988c0-.8851.5058-1.05369 1.0115-1.09583.5479 0 .4637-.21074.4637-.46363v-.29503c-.4215-.12644-2.2339.04215-2.7396.04215-.843 0-2.3181-.04215-2.7818.04215v.33717c0 .12645.1265.42148.5901.42148.2529 0 .8429-.08429 1.0115-.08429v1.05368l.1265 7.33363c0 .7587-.4636.9694-1.0537 1.0959-.5479 0-.5479.2107-.5479.4215v.295c.5057.0843 2.3181.0421 2.8239.0421.5057 0 2.3181 0 2.5288-.0843v-.295c0-.2107-.0843-.4636-.4636-.4636-.295 0-.6322.0843-.8851.1264v-1.1801l4.8891-5.81636.0843 5.77416c0 .9273-.3793 1.0959-.8008 1.138-.4215.0422-.4636.1265-.4636.3372v.3372c.6322.0843 2.0652.0421 2.571.0421.5057 0 2.1916 0 2.4024-.0843v-.295c0-.2107-.0843-.4215-.4636-.4215-.2529 0-.6323.0843-.8851.1265l-.1265-8.0502v-.33718c0-.8008.5058-1.05369.8008-1.09583.5479 0 .5479-.21074.5479-.46363v-.29503c-.2529-.12644-1.8966-.04215-2.4024-.04215z"></path><path d="m30.9814 3.70898h.4637c.1685-.67436.2107-2.40241.2107-3.371802 0-.210737 0-.337178-.4636-.337178l-12.2228.168588c-.2529 0-.4215.126445-.5058.463625-.0421.295032-.2107 1.559457-.3372 2.360257-.0421.16859-.1264.8851-.1264.92725h.295c.4637 0 .5058-.21074.5901-.46362.1686-.42148.5901-1.43302 1.3066-1.8545.3371-.21073.9272-.33717 1.6437-.33717.0843 0 .4215-.00001 1.7702.04214l.1686 12.34923c0 1.2644-.4636 1.3909-1.0958 1.5595-.2951.0842-.4215.0842-.4215.4636v.295c.6322.1265 2.4446.0422 2.866.0422 1.3487 0 2.4024-.0843 2.8661-.0843v-.4215c0-.1686-.1265-.4215-.548-.4215-.5057 0-.7586.0843-1.0536.0843l-.1686-14.03512 2.2759-.04215c1.0116 0 1.4752.25289 1.8124.75866s.4214 1.22228.4214 1.39087c-.0421.21074.0001.46362.2529.46362z"></path></g></g></svg>